<?xml version="1.0" encoding="UTF-8" standalone="no"?>
<svg width="60px" height="92px" viewBox="0 0 60 92" version="1.1" xmlns="http://www.w3.org/2000/svg" xmlns:xlink="http://www.w3.org/1999/xlink">
    <!-- Generator: Sketch 39.1 (31720) - http://www.bohemiancoding.com/sketch -->
    <title>noun_430926_cc</title>
    <desc>Created with Sketch.</desc>
    <defs></defs>
    <g id="Page-1" stroke="none" stroke-width="1" fill="none" fill-rule="evenodd">
        <g id="noun_430926_cc" fill="#000000">
            <path d="M21,20 C25.3,20 28.9,16.5 28.9,12.2 C28.9,8.4 26,6.2 21,6.2 C16,6.2 13.1,8.4 13.1,12.2 C13.2,16.5 16.7,20 21,20 L21,20 Z M21,8.2 C24.9,8.2 26.9,9.6 26.9,12.2 C26.9,15.4 24.3,18 21,18 C17.7,18 15.1,15.4 15.1,12.2 C15.2,9.6 17.2,8.2 21,8.2 L21,8.2 Z" id="Shape"></path>
            <path d="M57.9,8.4 L57.5,8.1 C55.5,6.5 52.6,6.7 51,8.7 C51,8.7 50,10 49.9,10.1 C46.8,14.2 41.9,16.1 37.8,16.9 L37.8,11.9 C37.8,9.7 36,7.9 33.8,7.9 L32,7.9 C30.2,3.5 26,0.5 21,0.5 C16,0.5 11.8,3.5 10.1,7.8 L9,7.8 L9,3.3 C9,2.7 8.6,2.3 8,2.3 C7.4,2.3 7,2.7 7,3.3 L7,8 C5.4,8.5 4.2,10 4.2,11.8 L4.2,23.5 L4.2,23.7 C1.9,26.7 0.5,30.4 0.5,34.4 L0.5,52.6 L0.5,54.6 L0.5,55.3 C0.5,57.9 2.6,59.9 5.1,59.9 L5.6,59.9 C6.6,59.9 7.5,59.6 8.2,59.1 L8.2,82 L7.7,82 C4,82 1,85 1,88.7 C1,90.3 2.3,91.5 3.9,91.5 L19,91.5 C19.6,91.5 20,91.1 20,90.5 L20,83 L20,67.3 C20,66.8 20.4,66.4 20.9,66.4 C21.4,66.4 21.8,66.8 21.8,67.3 L21.8,83 L21.8,83.9 L21.8,90.5 C21.8,91.1 22.2,91.5 22.8,91.5 L38,91.5 C39.6,91.5 40.9,90.2 40.9,88.7 C40.9,85 37.9,82.1 34.2,82.1 L33.9,82.1 L33.9,53.5 L33.9,53.4 L33.9,49 C36,48.9 37.8,47.2 37.8,45 L37.8,27.9 C50.3,25.7 57,16.8 57.4,16.2 L58.5,14.9 C59.2,13.9 59.6,12.8 59.5,11.5 C59.4,10.3 58.8,9.2 57.9,8.4 L57.9,8.4 Z M32.9,12.2 C32.9,11.4 32.8,10.6 32.6,9.8 L33.7,9.8 C34.8,9.8 35.7,10.7 35.7,11.8 L35.7,17.2 C34,17.4 32.5,17.5 31.6,17.5 C32.4,15.9 32.9,14.1 32.9,12.2 L32.9,12.2 Z M21,2.5 C26.4,2.5 30.8,6.8 30.8,12.2 C30.8,17.5 26.4,21.9 21,21.9 C15.6,21.9 11.2,17.6 11.2,12.2 C11.2,6.8 15.6,2.5 21,2.5 L21,2.5 Z M6.2,11.8 C6.2,10.7 7.1,9.8 8.2,9.8 L9.5,9.8 C9.3,10.6 9.2,11.4 9.2,12.2 C9.2,14.4 9.9,16.5 11,18.3 C9.2,19.1 7.6,20.2 6.2,21.5 L6.2,11.8 L6.2,11.8 Z M5.6,57.8 L5.1,57.8 C3.7,57.8 2.5,56.6 2.5,55.2 L2.5,54.5 L8.3,54.5 L8.3,55.2 C8.3,56.6 7.1,57.8 5.6,57.8 L5.6,57.8 Z M35.7,45 C35.7,46.1 34.9,46.9 33.8,47 L33.8,31.5 C33.8,30.2 34.5,29 35.7,28.4 L35.7,45 L35.7,45 Z M36.5,26.1 C33.8,26.5 31.8,28.8 31.8,31.5 L31.8,53.4 L31.8,53.5 L31.8,82.3 C30.4,82.7 29,83.5 27.9,84.6 C27.5,85 27.5,85.6 27.9,86 C28.1,86.2 28.3,86.3 28.6,86.3 C28.9,86.3 29.1,86.2 29.3,86 C30.6,84.7 32.2,84 34.1,84 C36.7,84 38.8,86.1 38.8,88.6 C38.8,89.1 38.4,89.4 37.9,89.4 L23.9,89.4 L23.9,84 L26,84 C26.6,84 27,83.6 27,83 C27,82.4 26.6,82 26,82 L23.9,82 L23.9,67.3 C23.9,65.7 22.6,64.4 21,64.4 C19.4,64.4 18.1,65.7 18.1,67.3 L18.1,82 L16,82 C15.4,82 15,82.4 15,83 C15,83.6 15.4,84 16,84 L18,84 L18,89.5 L3.9,89.5 C3.4,89.5 3,89.1 3,88.7 C3,86.1 5.1,84.1 7.7,84.1 C9.5,84.1 11.2,84.8 12.5,86.1 C12.7,86.3 13,86.4 13.2,86.4 C13.5,86.4 13.7,86.3 13.9,86.1 C14.3,85.7 14.3,85.1 13.9,84.7 C12.9,83.6 11.6,82.9 10.2,82.5 L10.2,55.2 L10.2,53.5 L10.2,52.5 L10.2,35.9 C10.2,35.3 9.8,34.9 9.2,34.9 C8.6,34.9 8.2,35.3 8.2,35.9 L8.2,52.5 L2.4,52.5 L2.4,34.3 C2.4,28 6.3,22.3 12.2,19.9 C14.4,22.3 17.5,23.8 21,23.8 C24.8,23.8 28.1,22.1 30.3,19.4 L31.5,19.4 C35.1,19.4 45,18.7 50.8,11.9 L55.2,15.6 C53.3,17.9 46.9,24.5 36.5,26.1 L36.5,26.1 Z M56.9,13.6 L56.5,14.1 L52,10.4 L52.5,9.9 C53.4,8.8 55.1,8.6 56.2,9.6 L56.6,9.9 C57.1,10.4 57.5,11 57.5,11.7 C57.6,12.4 57.3,13.1 56.9,13.6 L56.9,13.6 Z" id="Shape"></path>
            <path d="M26.2,28.7 L15.9,28.7 C14.4,28.7 13.2,29.9 13.2,31.4 L13.2,37.8 C13.2,39.3 14.4,40.5 15.9,40.5 L26.2,40.5 C27.7,40.5 28.9,39.3 28.9,37.8 L28.9,31.4 C28.9,29.9 27.7,28.7 26.2,28.7 L26.2,28.7 Z M26.9,37.8 C26.9,38.2 26.6,38.5 26.2,38.5 L15.9,38.5 C15.5,38.5 15.2,38.2 15.2,37.8 L15.2,31.4 C15.2,31 15.5,30.7 15.9,30.7 L26.2,30.7 C26.6,30.7 26.9,31 26.9,31.4 L26.9,37.8 L26.9,37.8 Z" id="Shape"></path>
        </g>
    </g>
</svg>